<?xml version="1.0" encoding="UTF-8" standalone="no"?>
<!DOCTYPE svg PUBLIC "-//W3C//DTD SVG 1.1//EN" "http://www.w3.org/Graphics/SVG/1.1/DTD/svg11.dtd">
<svg width="100%" height="100%" viewBox="0 0 800 200" version="1.1" xmlns="http://www.w3.org/2000/svg" xmlns:xlink="http://www.w3.org/1999/xlink" xml:space="preserve" xmlns:serif="http://www.serif.com/" style="fill-rule:evenodd;clip-rule:evenodd;stroke-linejoin:round;stroke-miterlimit:2;">
    <g transform="matrix(1,0,0,1,300,0)">
        <g transform="matrix(2.24638,0,0,1.91358,-171.981,-75.7202)">
            <ellipse cx="121.075" cy="91.828" rx="44.516" ry="52.258" style="fill:rgb(0,133,124);"/>
        </g>
        <g transform="matrix(1,0,0,1,-47.1086,9.02688)">
            <g transform="matrix(100,0,0,100,74.4086,92.4731)">
                <path d="M0.406,0.015C0.331,0.015 0.265,-0 0.208,-0.031C0.151,-0.062 0.106,-0.105 0.075,-0.16C0.043,-0.215 0.027,-0.279 0.027,-0.35C0.027,-0.421 0.043,-0.485 0.075,-0.54C0.106,-0.595 0.151,-0.638 0.207,-0.669C0.265,-0.7 0.33,-0.715 0.403,-0.715C0.464,-0.715 0.519,-0.705 0.57,-0.684C0.621,-0.663 0.664,-0.632 0.699,-0.594C0.734,-0.555 0.758,-0.509 0.771,-0.457L0.526,-0.457C0.514,-0.474 0.498,-0.488 0.476,-0.498C0.456,-0.507 0.432,-0.512 0.406,-0.512C0.36,-0.512 0.323,-0.497 0.295,-0.468C0.267,-0.438 0.253,-0.399 0.253,-0.35C0.253,-0.302 0.267,-0.263 0.295,-0.233C0.322,-0.202 0.36,-0.187 0.409,-0.187C0.441,-0.187 0.468,-0.194 0.491,-0.207C0.514,-0.22 0.53,-0.239 0.541,-0.262L0.369,-0.262L0.369,-0.408L0.781,-0.408C0.783,-0.39 0.784,-0.372 0.784,-0.355C0.784,-0.283 0.769,-0.219 0.738,-0.163C0.707,-0.107 0.662,-0.063 0.605,-0.032C0.548,-0.001 0.481,0.015 0.406,0.015Z" style="fill:rgb(243,244,246);fill-rule:nonzero;"/>
            </g>
        </g>
        <g transform="matrix(1,0,0,1,36.4414,-2.63978)">
            <g transform="matrix(66.6667,0,0,66.6667,74.4086,92.4731)">
                <path d="M0.032,-0.172L0.294,-0.49L0.293,-0.493L0.206,-0.492L0.042,-0.492L0.042,-0.7L0.601,-0.7L0.601,-0.528L0.34,-0.21L0.341,-0.207L0.438,-0.208L0.607,-0.208L0.607,-0L0.032,-0L0.032,-0.172Z" style="fill:rgb(243,244,246);fill-rule:nonzero;"/>
            </g>
        </g>
        <g transform="matrix(-1,-2.77556e-16,-2.77556e-16,1,163.559,64.3602)">
            <g transform="matrix(66.6667,0,0,66.6667,74.4086,92.4731)">
                <path d="M0.032,-0.172L0.294,-0.49L0.293,-0.493L0.206,-0.492L0.042,-0.492L0.042,-0.7L0.601,-0.7L0.601,-0.528L0.34,-0.21L0.341,-0.207L0.438,-0.208L0.607,-0.208L0.607,-0L0.032,-0L0.032,-0.172Z" style="fill:rgb(243,244,246);fill-rule:nonzero;"/>
            </g>
        </g>
        <g transform="matrix(-1,0,0,1,247.109,76.0269)">
            <g transform="matrix(100,0,0,100,74.4086,92.4731)">
                <path d="M0.406,0.015C0.331,0.015 0.265,-0 0.208,-0.031C0.151,-0.062 0.106,-0.105 0.075,-0.16C0.043,-0.215 0.027,-0.279 0.027,-0.35C0.027,-0.421 0.043,-0.485 0.075,-0.54C0.106,-0.595 0.151,-0.638 0.207,-0.669C0.265,-0.7 0.33,-0.715 0.403,-0.715C0.464,-0.715 0.519,-0.705 0.57,-0.684C0.621,-0.663 0.664,-0.632 0.699,-0.594C0.734,-0.555 0.758,-0.509 0.771,-0.457L0.526,-0.457C0.514,-0.474 0.498,-0.488 0.476,-0.498C0.456,-0.507 0.432,-0.512 0.406,-0.512C0.36,-0.512 0.323,-0.497 0.295,-0.468C0.267,-0.438 0.253,-0.399 0.253,-0.35C0.253,-0.302 0.267,-0.263 0.295,-0.233C0.322,-0.202 0.36,-0.187 0.409,-0.187C0.441,-0.187 0.468,-0.194 0.491,-0.207C0.514,-0.22 0.53,-0.239 0.541,-0.262L0.369,-0.262L0.369,-0.408L0.781,-0.408C0.783,-0.39 0.784,-0.372 0.784,-0.355C0.784,-0.283 0.769,-0.219 0.738,-0.163C0.707,-0.107 0.662,-0.063 0.605,-0.032C0.548,-0.001 0.481,0.015 0.406,0.015Z" style="fill:rgb(243,244,246);fill-rule:nonzero;"/>
            </g>
        </g>
    </g>
    <g transform="matrix(1,0,0,1,-70.5313,37.7553)">
        <g transform="matrix(102.778,0,0,102.778,67.7563,98.2169)">
            <path d="M0.406,0.015C0.331,0.015 0.265,-0 0.208,-0.031C0.151,-0.062 0.106,-0.105 0.075,-0.16C0.043,-0.215 0.027,-0.279 0.027,-0.35C0.027,-0.421 0.043,-0.485 0.075,-0.54C0.106,-0.595 0.151,-0.638 0.207,-0.669C0.265,-0.7 0.33,-0.715 0.403,-0.715C0.464,-0.715 0.519,-0.705 0.57,-0.684C0.621,-0.663 0.664,-0.632 0.699,-0.594C0.734,-0.555 0.758,-0.509 0.771,-0.457L0.526,-0.457C0.514,-0.474 0.498,-0.488 0.476,-0.498C0.456,-0.507 0.432,-0.512 0.406,-0.512C0.36,-0.512 0.323,-0.497 0.295,-0.468C0.267,-0.438 0.253,-0.399 0.253,-0.35C0.253,-0.302 0.267,-0.263 0.295,-0.233C0.322,-0.202 0.36,-0.187 0.409,-0.187C0.441,-0.187 0.468,-0.194 0.491,-0.207C0.514,-0.22 0.53,-0.239 0.541,-0.262L0.369,-0.262L0.369,-0.408L0.781,-0.408C0.783,-0.39 0.784,-0.372 0.784,-0.355C0.784,-0.283 0.769,-0.219 0.738,-0.163C0.707,-0.107 0.662,-0.063 0.605,-0.032C0.548,-0.001 0.481,0.015 0.406,0.015Z" style="fill:rgb(0,133,124);fill-rule:nonzero;"/>
        </g>
        <g transform="matrix(102.778,0,0,102.778,150.904,98.2169)">
            <path d="M0.414,0.015C0.339,0.015 0.272,-0.001 0.213,-0.032C0.154,-0.063 0.109,-0.106 0.076,-0.161C0.043,-0.216 0.027,-0.279 0.027,-0.35C0.027,-0.421 0.043,-0.484 0.076,-0.539C0.109,-0.594 0.154,-0.637 0.213,-0.669C0.272,-0.7 0.339,-0.715 0.414,-0.715C0.49,-0.715 0.557,-0.7 0.616,-0.669C0.675,-0.637 0.72,-0.594 0.753,-0.539C0.786,-0.484 0.802,-0.421 0.802,-0.35C0.802,-0.279 0.786,-0.216 0.753,-0.161C0.72,-0.106 0.675,-0.063 0.616,-0.032C0.557,-0.001 0.49,0.015 0.414,0.015ZM0.271,-0.35C0.271,-0.307 0.284,-0.273 0.311,-0.246C0.338,-0.219 0.372,-0.205 0.414,-0.205C0.456,-0.205 0.491,-0.219 0.518,-0.246C0.545,-0.273 0.558,-0.307 0.558,-0.35C0.558,-0.393 0.545,-0.428 0.518,-0.455C0.491,-0.482 0.456,-0.495 0.414,-0.495C0.372,-0.495 0.338,-0.482 0.311,-0.455C0.284,-0.428 0.271,-0.393 0.271,-0.35Z" style="fill:rgb(0,133,124);fill-rule:nonzero;"/>
        </g>
        <g transform="matrix(102.778,0,0,102.778,234.462,98.2169)">
            <path d="M0.032,-0.172L0.294,-0.49L0.293,-0.493L0.206,-0.492L0.042,-0.492L0.042,-0.7L0.601,-0.7L0.601,-0.528L0.34,-0.21L0.341,-0.207L0.438,-0.208L0.607,-0.208L0.607,-0L0.032,-0L0.032,-0.172Z" style="fill:rgb(0,133,124);fill-rule:nonzero;"/>
        </g>
        <g transform="matrix(102.778,0,0,102.778,300.137,98.2169)">
            <path d="M0.063,-0.7L0.567,-0.7L0.567,-0.521L0.298,-0.521L0.298,-0.44L0.541,-0.44L0.541,-0.266L0.298,-0.266L0.298,-0.182L0.577,-0.182L0.577,-0L0.063,-0L0.063,-0.7Z" style="fill:rgb(0,133,124);fill-rule:nonzero;"/>
        </g>
    </g>
    <g transform="matrix(1,0,0,1,438.196,37.7553)">
        <g transform="matrix(102.778,0,0,102.778,67.7563,98.2169)">
            <path d="M0.032,-0.172L0.294,-0.49L0.293,-0.493L0.206,-0.492L0.042,-0.492L0.042,-0.7L0.601,-0.7L0.601,-0.528L0.34,-0.21L0.341,-0.207L0.438,-0.208L0.607,-0.208L0.607,-0L0.032,-0L0.032,-0.172Z" style="fill:rgb(0,133,124);fill-rule:nonzero;"/>
        </g>
        <g transform="matrix(102.778,0,0,102.778,133.431,98.2169)">
            <path d="M0.063,-0.7L0.567,-0.7L0.567,-0.521L0.298,-0.521L0.298,-0.44L0.541,-0.44L0.541,-0.266L0.298,-0.266L0.298,-0.182L0.577,-0.182L0.577,-0L0.063,-0L0.063,-0.7Z" style="fill:rgb(0,133,124);fill-rule:nonzero;"/>
        </g>
        <g transform="matrix(102.778,0,0,102.778,196.229,98.2169)">
            <path d="M0.406,0.015C0.331,0.015 0.265,-0 0.208,-0.031C0.151,-0.062 0.106,-0.105 0.075,-0.16C0.043,-0.215 0.027,-0.279 0.027,-0.35C0.027,-0.421 0.043,-0.485 0.075,-0.54C0.106,-0.595 0.151,-0.638 0.207,-0.669C0.265,-0.7 0.33,-0.715 0.403,-0.715C0.464,-0.715 0.519,-0.705 0.57,-0.684C0.621,-0.663 0.664,-0.632 0.699,-0.594C0.734,-0.555 0.758,-0.509 0.771,-0.457L0.526,-0.457C0.514,-0.474 0.498,-0.488 0.476,-0.498C0.456,-0.507 0.432,-0.512 0.406,-0.512C0.36,-0.512 0.323,-0.497 0.295,-0.468C0.267,-0.438 0.253,-0.399 0.253,-0.35C0.253,-0.302 0.267,-0.263 0.295,-0.233C0.322,-0.202 0.36,-0.187 0.409,-0.187C0.441,-0.187 0.468,-0.194 0.491,-0.207C0.514,-0.22 0.53,-0.239 0.541,-0.262L0.369,-0.262L0.369,-0.408L0.781,-0.408C0.783,-0.39 0.784,-0.372 0.784,-0.355C0.784,-0.283 0.769,-0.219 0.738,-0.163C0.707,-0.107 0.662,-0.063 0.605,-0.032C0.548,-0.001 0.481,0.015 0.406,0.015Z" style="fill:rgb(0,133,124);fill-rule:nonzero;"/>
        </g>
        <g transform="matrix(102.778,0,0,102.778,279.376,98.2169)">
            <path d="M0.414,0.015C0.339,0.015 0.272,-0.001 0.213,-0.032C0.154,-0.063 0.109,-0.106 0.076,-0.161C0.043,-0.216 0.027,-0.279 0.027,-0.35C0.027,-0.421 0.043,-0.484 0.076,-0.539C0.109,-0.594 0.154,-0.637 0.213,-0.669C0.272,-0.7 0.339,-0.715 0.414,-0.715C0.49,-0.715 0.557,-0.7 0.616,-0.669C0.675,-0.637 0.72,-0.594 0.753,-0.539C0.786,-0.484 0.802,-0.421 0.802,-0.35C0.802,-0.279 0.786,-0.216 0.753,-0.161C0.72,-0.106 0.675,-0.063 0.616,-0.032C0.557,-0.001 0.49,0.015 0.414,0.015ZM0.271,-0.35C0.271,-0.307 0.284,-0.273 0.311,-0.246C0.338,-0.219 0.372,-0.205 0.414,-0.205C0.456,-0.205 0.491,-0.219 0.518,-0.246C0.545,-0.273 0.558,-0.307 0.558,-0.35C0.558,-0.393 0.545,-0.428 0.518,-0.455C0.491,-0.482 0.456,-0.495 0.414,-0.495C0.372,-0.495 0.338,-0.482 0.311,-0.455C0.284,-0.428 0.271,-0.393 0.271,-0.35Z" style="fill:rgb(0,133,124);fill-rule:nonzero;"/>
        </g>
    </g>
</svg>
