<?xml version="1.0" encoding="UTF-8" standalone="no"?>
<!DOCTYPE svg PUBLIC "-//W3C//DTD SVG 1.1//EN" "http://www.w3.org/Graphics/SVG/1.1/DTD/svg11.dtd">
<svg width="100%" height="100%" viewBox="0 0 1920 1440" version="1.1" xmlns="http://www.w3.org/2000/svg" xmlns:xlink="http://www.w3.org/1999/xlink" xml:space="preserve" xmlns:serif="http://www.serif.com/" style="fill-rule:evenodd;clip-rule:evenodd;stroke-linejoin:bevel;stroke-miterlimit:1;">
    <g transform="matrix(1.07452,0,0,1.10979,-31.6118,-44.6778)">
        <rect x="29.419" y="40.258" width="1786.84" height="1297.55" style="fill:rgb(243,244,246);"/>
    </g>
    <g>
        <circle cx="328.333" cy="570" r="8.333" style="fill:rgb(0,133,124);"/>
        <circle cx="1591.67" cy="870" r="8.333" style="fill:rgb(0,133,124);"/>
        <path d="M333.333,570L761.61,570C783.998,570 805.739,577.513 823.351,591.336C893.659,646.518 1080.91,793.482 1151.22,848.664C1168.83,862.487 1190.57,870 1212.96,870L1586.67,870" style="fill:none;stroke:rgb(0,133,124);stroke-width:5.56px;"/>
        <g id="gozezego-header.svg" transform="matrix(1.6,0,0,1.6,960,720)">
            <g transform="matrix(1,0,0,1,-400,-100)">
                <g transform="matrix(1,0,0,1,300,0)">
                    <g transform="matrix(2.24638,0,0,1.91358,-171.981,-75.7202)">
                        <ellipse cx="121.075" cy="91.828" rx="44.516" ry="52.258" style="fill:rgb(0,133,124);"/>
                    </g>
                    <g transform="matrix(100,0,0,100,27.3,101.5)">
                        <g>
                            <path d="M0.406,0.015C0.331,0.015 0.265,-0 0.208,-0.031C0.151,-0.062 0.106,-0.105 0.075,-0.16C0.043,-0.215 0.027,-0.279 0.027,-0.35C0.027,-0.421 0.043,-0.485 0.075,-0.54C0.106,-0.595 0.151,-0.638 0.207,-0.669C0.265,-0.7 0.33,-0.715 0.403,-0.715C0.464,-0.715 0.519,-0.705 0.57,-0.684C0.621,-0.663 0.664,-0.632 0.699,-0.594C0.734,-0.555 0.758,-0.509 0.771,-0.457L0.526,-0.457C0.514,-0.474 0.498,-0.488 0.476,-0.498C0.456,-0.507 0.432,-0.512 0.406,-0.512C0.36,-0.512 0.323,-0.497 0.295,-0.468C0.267,-0.438 0.253,-0.399 0.253,-0.35C0.253,-0.302 0.267,-0.263 0.295,-0.233C0.322,-0.202 0.36,-0.187 0.409,-0.187C0.441,-0.187 0.468,-0.194 0.491,-0.207C0.514,-0.22 0.53,-0.239 0.541,-0.262L0.369,-0.262L0.369,-0.408L0.781,-0.408C0.783,-0.39 0.784,-0.372 0.784,-0.355C0.784,-0.283 0.769,-0.219 0.738,-0.163C0.707,-0.107 0.662,-0.063 0.605,-0.032C0.548,-0.001 0.481,0.015 0.406,0.015Z" style="fill:rgb(243,244,246);fill-rule:nonzero;"/>
                        </g>
                    </g>
                    <g transform="matrix(66.6667,0,0,66.6667,110.85,89.8333)">
                        <g>
                            <path d="M0.032,-0.172L0.294,-0.49L0.293,-0.493L0.206,-0.492L0.042,-0.492L0.042,-0.7L0.601,-0.7L0.601,-0.528L0.34,-0.21L0.341,-0.207L0.438,-0.208L0.607,-0.208L0.607,-0L0.032,-0L0.032,-0.172Z" style="fill:rgb(243,244,246);fill-rule:nonzero;"/>
                        </g>
                    </g>
                    <g transform="matrix(-66.6667,-1.85037e-14,-1.85037e-14,66.6667,89.1504,156.833)">
                        <g>
                            <path d="M0.032,-0.172L0.294,-0.49L0.293,-0.493L0.206,-0.492L0.042,-0.492L0.042,-0.7L0.601,-0.7L0.601,-0.528L0.34,-0.21L0.341,-0.207L0.438,-0.208L0.607,-0.208L0.607,-0L0.032,-0L0.032,-0.172Z" style="fill:rgb(243,244,246);fill-rule:nonzero;"/>
                        </g>
                    </g>
                    <g transform="matrix(-100,0,0,100,172.7,168.5)">
                        <g>
                            <path d="M0.406,0.015C0.331,0.015 0.265,-0 0.208,-0.031C0.151,-0.062 0.106,-0.105 0.075,-0.16C0.043,-0.215 0.027,-0.279 0.027,-0.35C0.027,-0.421 0.043,-0.485 0.075,-0.54C0.106,-0.595 0.151,-0.638 0.207,-0.669C0.265,-0.7 0.33,-0.715 0.403,-0.715C0.464,-0.715 0.519,-0.705 0.57,-0.684C0.621,-0.663 0.664,-0.632 0.699,-0.594C0.734,-0.555 0.758,-0.509 0.771,-0.457L0.526,-0.457C0.514,-0.474 0.498,-0.488 0.476,-0.498C0.456,-0.507 0.432,-0.512 0.406,-0.512C0.36,-0.512 0.323,-0.497 0.295,-0.468C0.267,-0.438 0.253,-0.399 0.253,-0.35C0.253,-0.302 0.267,-0.263 0.295,-0.233C0.322,-0.202 0.36,-0.187 0.409,-0.187C0.441,-0.187 0.468,-0.194 0.491,-0.207C0.514,-0.22 0.53,-0.239 0.541,-0.262L0.369,-0.262L0.369,-0.408L0.781,-0.408C0.783,-0.39 0.784,-0.372 0.784,-0.355C0.784,-0.283 0.769,-0.219 0.738,-0.163C0.707,-0.107 0.662,-0.063 0.605,-0.032C0.548,-0.001 0.481,0.015 0.406,0.015Z" style="fill:rgb(243,244,246);fill-rule:nonzero;"/>
                        </g>
                    </g>
                </g>
                <g transform="matrix(1,0,0,1,-70.5313,37.7553)">
                    <g transform="matrix(102.778,0,0,102.778,67.7563,98.2169)">
                        <path d="M0.406,0.015C0.331,0.015 0.265,-0 0.208,-0.031C0.151,-0.062 0.106,-0.105 0.075,-0.16C0.043,-0.215 0.027,-0.279 0.027,-0.35C0.027,-0.421 0.043,-0.485 0.075,-0.54C0.106,-0.595 0.151,-0.638 0.207,-0.669C0.265,-0.7 0.33,-0.715 0.403,-0.715C0.464,-0.715 0.519,-0.705 0.57,-0.684C0.621,-0.663 0.664,-0.632 0.699,-0.594C0.734,-0.555 0.758,-0.509 0.771,-0.457L0.526,-0.457C0.514,-0.474 0.498,-0.488 0.476,-0.498C0.456,-0.507 0.432,-0.512 0.406,-0.512C0.36,-0.512 0.323,-0.497 0.295,-0.468C0.267,-0.438 0.253,-0.399 0.253,-0.35C0.253,-0.302 0.267,-0.263 0.295,-0.233C0.322,-0.202 0.36,-0.187 0.409,-0.187C0.441,-0.187 0.468,-0.194 0.491,-0.207C0.514,-0.22 0.53,-0.239 0.541,-0.262L0.369,-0.262L0.369,-0.408L0.781,-0.408C0.783,-0.39 0.784,-0.372 0.784,-0.355C0.784,-0.283 0.769,-0.219 0.738,-0.163C0.707,-0.107 0.662,-0.063 0.605,-0.032C0.548,-0.001 0.481,0.015 0.406,0.015Z" style="fill:rgb(0,133,124);fill-rule:nonzero;"/>
                    </g>
                    <g transform="matrix(102.778,0,0,102.778,150.904,98.2169)">
                        <path d="M0.414,0.015C0.339,0.015 0.272,-0.001 0.213,-0.032C0.154,-0.063 0.109,-0.106 0.076,-0.161C0.043,-0.216 0.027,-0.279 0.027,-0.35C0.027,-0.421 0.043,-0.484 0.076,-0.539C0.109,-0.594 0.154,-0.637 0.213,-0.669C0.272,-0.7 0.339,-0.715 0.414,-0.715C0.49,-0.715 0.557,-0.7 0.616,-0.669C0.675,-0.637 0.72,-0.594 0.753,-0.539C0.786,-0.484 0.802,-0.421 0.802,-0.35C0.802,-0.279 0.786,-0.216 0.753,-0.161C0.72,-0.106 0.675,-0.063 0.616,-0.032C0.557,-0.001 0.49,0.015 0.414,0.015ZM0.271,-0.35C0.271,-0.307 0.284,-0.273 0.311,-0.246C0.338,-0.219 0.372,-0.205 0.414,-0.205C0.456,-0.205 0.491,-0.219 0.518,-0.246C0.545,-0.273 0.558,-0.307 0.558,-0.35C0.558,-0.393 0.545,-0.428 0.518,-0.455C0.491,-0.482 0.456,-0.495 0.414,-0.495C0.372,-0.495 0.338,-0.482 0.311,-0.455C0.284,-0.428 0.271,-0.393 0.271,-0.35Z" style="fill:rgb(0,133,124);fill-rule:nonzero;"/>
                    </g>
                    <g transform="matrix(102.778,0,0,102.778,234.462,98.2169)">
                        <path d="M0.032,-0.172L0.294,-0.49L0.293,-0.493L0.206,-0.492L0.042,-0.492L0.042,-0.7L0.601,-0.7L0.601,-0.528L0.34,-0.21L0.341,-0.207L0.438,-0.208L0.607,-0.208L0.607,-0L0.032,-0L0.032,-0.172Z" style="fill:rgb(0,133,124);fill-rule:nonzero;"/>
                    </g>
                    <g transform="matrix(102.778,0,0,102.778,300.137,98.2169)">
                        <path d="M0.063,-0.7L0.567,-0.7L0.567,-0.521L0.298,-0.521L0.298,-0.44L0.541,-0.44L0.541,-0.266L0.298,-0.266L0.298,-0.182L0.577,-0.182L0.577,-0L0.063,-0L0.063,-0.7Z" style="fill:rgb(0,133,124);fill-rule:nonzero;"/>
                    </g>
                </g>
                <g transform="matrix(1,0,0,1,438.196,37.7553)">
                    <g transform="matrix(102.778,0,0,102.778,67.7563,98.2169)">
                        <path d="M0.032,-0.172L0.294,-0.49L0.293,-0.493L0.206,-0.492L0.042,-0.492L0.042,-0.7L0.601,-0.7L0.601,-0.528L0.34,-0.21L0.341,-0.207L0.438,-0.208L0.607,-0.208L0.607,-0L0.032,-0L0.032,-0.172Z" style="fill:rgb(0,133,124);fill-rule:nonzero;"/>
                    </g>
                    <g transform="matrix(102.778,0,0,102.778,133.431,98.2169)">
                        <path d="M0.063,-0.7L0.567,-0.7L0.567,-0.521L0.298,-0.521L0.298,-0.44L0.541,-0.44L0.541,-0.266L0.298,-0.266L0.298,-0.182L0.577,-0.182L0.577,-0L0.063,-0L0.063,-0.7Z" style="fill:rgb(0,133,124);fill-rule:nonzero;"/>
                    </g>
                    <g transform="matrix(102.778,0,0,102.778,196.229,98.2169)">
                        <path d="M0.406,0.015C0.331,0.015 0.265,-0 0.208,-0.031C0.151,-0.062 0.106,-0.105 0.075,-0.16C0.043,-0.215 0.027,-0.279 0.027,-0.35C0.027,-0.421 0.043,-0.485 0.075,-0.54C0.106,-0.595 0.151,-0.638 0.207,-0.669C0.265,-0.7 0.33,-0.715 0.403,-0.715C0.464,-0.715 0.519,-0.705 0.57,-0.684C0.621,-0.663 0.664,-0.632 0.699,-0.594C0.734,-0.555 0.758,-0.509 0.771,-0.457L0.526,-0.457C0.514,-0.474 0.498,-0.488 0.476,-0.498C0.456,-0.507 0.432,-0.512 0.406,-0.512C0.36,-0.512 0.323,-0.497 0.295,-0.468C0.267,-0.438 0.253,-0.399 0.253,-0.35C0.253,-0.302 0.267,-0.263 0.295,-0.233C0.322,-0.202 0.36,-0.187 0.409,-0.187C0.441,-0.187 0.468,-0.194 0.491,-0.207C0.514,-0.22 0.53,-0.239 0.541,-0.262L0.369,-0.262L0.369,-0.408L0.781,-0.408C0.783,-0.39 0.784,-0.372 0.784,-0.355C0.784,-0.283 0.769,-0.219 0.738,-0.163C0.707,-0.107 0.662,-0.063 0.605,-0.032C0.548,-0.001 0.481,0.015 0.406,0.015Z" style="fill:rgb(0,133,124);fill-rule:nonzero;"/>
                    </g>
                    <g transform="matrix(102.778,0,0,102.778,279.376,98.2169)">
                        <path d="M0.414,0.015C0.339,0.015 0.272,-0.001 0.213,-0.032C0.154,-0.063 0.109,-0.106 0.076,-0.161C0.043,-0.216 0.027,-0.279 0.027,-0.35C0.027,-0.421 0.043,-0.484 0.076,-0.539C0.109,-0.594 0.154,-0.637 0.213,-0.669C0.272,-0.7 0.339,-0.715 0.414,-0.715C0.49,-0.715 0.557,-0.7 0.616,-0.669C0.675,-0.637 0.72,-0.594 0.753,-0.539C0.786,-0.484 0.802,-0.421 0.802,-0.35C0.802,-0.279 0.786,-0.216 0.753,-0.161C0.72,-0.106 0.675,-0.063 0.616,-0.032C0.557,-0.001 0.49,0.015 0.414,0.015ZM0.271,-0.35C0.271,-0.307 0.284,-0.273 0.311,-0.246C0.338,-0.219 0.372,-0.205 0.414,-0.205C0.456,-0.205 0.491,-0.219 0.518,-0.246C0.545,-0.273 0.558,-0.307 0.558,-0.35C0.558,-0.393 0.545,-0.428 0.518,-0.455C0.491,-0.482 0.456,-0.495 0.414,-0.495C0.372,-0.495 0.338,-0.482 0.311,-0.455C0.284,-0.428 0.271,-0.393 0.271,-0.35Z" style="fill:rgb(0,133,124);fill-rule:nonzero;"/>
                    </g>
                </g>
            </g>
        </g>
        <g transform="matrix(1,0,0,1,-26.4938,-314.863)">
            <text x="346.694px" y="945.797px" style="font-family:'OpenSauceOne-ExtraBold', 'Open Sauce One';font-weight:800;font-size:33.333px;fill:rgb(0,133,124);">Y<tspan x="366.294px " y="945.797px ">o</tspan>ur Ul<tspan x="465.394px " y="945.797px ">t</tspan>imat<tspan x="550.16px " y="945.797px ">e</tspan> Guid<tspan x="658.327px " y="945.797px ">e</tspan> t<tspan x="701.394px " y="945.797px ">o</tspan> Mak<tspan x="802.46px " y="945.797px ">e</tspan></text>
        </g>
        <g transform="matrix(1,0,0,1,202.217,-117.43)">
            <text x="973.949px" y="945.797px" style="font-family:'OpenSauceOne-ExtraBold', 'Open Sauce One';font-weight:800;font-size:33.333px;fill:rgb(0,133,124);">Money Online and Ofﬂine</text>
        </g>
    </g>
    <g transform="matrix(1.1379,0,0,1.54499,-96.2834,-514.314)">
        <path d="M1741.18,394.784C1741.18,370.002 1713.86,349.881 1680.21,349.881L176.341,349.881C142.692,349.881 115.374,370.002 115.374,394.784L115.374,1203.04C115.374,1227.82 142.692,1247.94 176.341,1247.94L1680.21,1247.94C1713.86,1247.94 1741.18,1227.82 1741.18,1203.04L1741.18,394.784ZM1738.67,394.784L1738.67,1203.04C1738.67,1226.8 1712.47,1246.1 1680.21,1246.1C1680.21,1246.1 176.341,1246.1 176.341,1246.1C144.077,1246.1 117.883,1226.8 117.883,1203.04L117.883,394.784C117.883,371.022 144.077,351.729 176.341,351.729L1680.21,351.729C1712.47,351.729 1738.67,371.022 1738.67,394.784Z" style="fill:rgb(0,133,124);"/>
    </g>
    <g transform="matrix(1,0,0,1,-1.13687e-13,38.75)">
        <g transform="matrix(0.998274,0.0668106,-0.058722,1.13578,201.453,-160.397)">
            <g transform="matrix(0.998274,-0.058722,0.0516127,0.877416,-194.827,118.565)">
                <path d="M953.256,1307.01C953.256,1310.73 956.278,1313.75 960,1313.75C963.722,1313.75 966.744,1310.73 966.744,1307.01C966.744,1303.28 963.722,1300.26 960,1300.26C956.278,1300.26 953.256,1303.28 953.256,1307.01Z" style="fill:rgb(0,133,124);"/>
                <path d="M951.007,1040.73L960,1013.75L968.993,1040.73L951.007,1040.73Z" style="fill:rgb(0,133,124);"/>
                <path d="M960,1302.96L960,1035.33" style="fill:none;stroke:rgb(0,133,124);stroke-width:3px;"/>
            </g>
        </g>
        <g transform="matrix(0.919029,0.393748,-0.378897,0.869319,370.806,-148.542)">
            <g transform="matrix(0.916888,-0.415294,0.39963,0.969318,-296.112,260.417)">
                <path d="M670.866,1265.89C669.72,1269.04 671.346,1272.53 674.495,1273.67C677.644,1274.82 681.13,1273.19 682.276,1270.05C683.422,1266.9 681.796,1263.41 678.648,1262.26C675.499,1261.12 672.012,1262.74 670.866,1265.89Z" style="fill:rgb(0,133,124);"/>
                <path d="M744.088,1058.8L760,1038.75L759.301,1064.34L744.088,1058.8Z" style="fill:rgb(0,133,124);"/>
                <path d="M677.817,1264.55C690.516,1229.66 736.134,1104.32 753.356,1057.01" style="fill:none;stroke:rgb(0,133,124);stroke-width:2.7px;"/>
            </g>
        </g>
        <g transform="matrix(0.666518,0.745255,-0.710787,0.627742,692.666,-205.413)">
            <g transform="matrix(0.662092,-0.786035,0.749681,0.70299,-333.664,661.622)">
                <path d="M383.223,1206.94C380.854,1209.31 380.854,1213.16 383.223,1215.53C385.593,1217.9 389.44,1217.9 391.809,1215.53C394.178,1213.16 394.178,1209.31 391.809,1206.94C389.44,1204.57 385.593,1204.57 383.223,1206.94Z" style="fill:rgb(0,133,124);"/>
                <path d="M537.105,1050.2L560,1038.75L548.552,1061.64L537.105,1050.2Z" style="fill:rgb(0,133,124);"/>
                <path d="M390.092,1208.66C416.346,1182.4 510.659,1088.09 546.263,1052.49" style="fill:none;stroke:rgb(0,133,124);stroke-width:2.7px;"/>
            </g>
        </g>
        <g transform="matrix(0.957113,-0.289112,0.268536,0.909487,123.592,370.335)">
            <g transform="matrix(0.959254,0.304932,-0.28323,1.00949,-2.69104,-450.652)">
                <path d="M1237.72,1270.05C1238.87,1273.19 1242.36,1274.82 1245.51,1273.67C1248.65,1272.53 1250.28,1269.04 1249.13,1265.89C1247.99,1262.74 1244.5,1261.12 1241.35,1262.26C1238.2,1263.41 1236.58,1266.9 1237.72,1270.05Z" style="fill:rgb(0,133,124);"/>
                <path d="M1160.7,1064.34L1160,1038.75L1175.91,1058.8L1160.7,1064.34Z" style="fill:rgb(0,133,124);"/>
                <path d="M1242.18,1264.55C1229.48,1229.66 1183.87,1104.32 1166.64,1057.01" style="fill:none;stroke:rgb(0,133,124);stroke-width:2.7px;"/>
            </g>
        </g>
        <g transform="matrix(0.745255,-0.666518,0.627742,0.710787,154.587,867.334)">
            <g transform="matrix(0.749681,0.70299,-0.662092,0.786035,484.02,-820.887)">
                <path d="M1528.19,1215.53C1530.56,1217.9 1534.41,1217.9 1536.78,1215.53C1539.15,1213.16 1539.15,1209.31 1536.78,1206.94C1534.41,1204.57 1530.56,1204.57 1528.19,1206.94C1525.82,1209.31 1525.82,1213.16 1528.19,1215.53Z" style="fill:rgb(0,133,124);"/>
                <path d="M1371.45,1061.64L1360,1038.75L1382.89,1050.2L1371.45,1061.64Z" style="fill:rgb(0,133,124);"/>
                <path d="M1529.91,1208.66C1503.65,1182.4 1409.34,1088.09 1373.74,1052.49" style="fill:none;stroke:rgb(0,133,124);stroke-width:2.7px;"/>
            </g>
        </g>
    </g>
    <g transform="matrix(1,0,0,-1,-1.13687e-13,1401.25)">
        <g transform="matrix(0.998274,0.0668106,-0.058722,1.13578,201.453,-160.397)">
            <g transform="matrix(0.998274,-0.058722,-0.0516127,-0.877416,-120.505,1382.04)">
                <path d="M966.744,132.994C966.744,129.272 963.722,126.25 960,126.25C956.278,126.25 953.256,129.272 953.256,132.994C953.256,136.717 956.278,139.739 960,139.739C963.722,139.739 966.744,136.717 966.744,132.994Z" style="fill:rgb(0,133,124);"/>
                <path d="M968.993,399.272L960,426.25L951.007,399.272L968.993,399.272Z" style="fill:rgb(0,133,124);"/>
                <path d="M960,137.041L960,404.668" style="fill:none;stroke:rgb(0,133,124);stroke-width:3px;"/>
            </g>
        </g>
        <g transform="matrix(0.919029,0.393748,-0.378897,0.869319,370.806,-148.542)">
            <g transform="matrix(0.916888,-0.415294,-0.39963,-0.969318,279.356,1656.23)">
                <path d="M682.276,169.955C681.13,166.807 677.644,165.181 674.495,166.327C671.346,167.473 669.72,170.96 670.866,174.108C672.012,177.257 675.499,178.883 678.648,177.737C681.796,176.591 683.422,173.104 682.276,169.955Z" style="fill:rgb(0,133,124);"/>
                <path d="M759.301,375.662L760,401.25L744.088,381.199L759.301,375.662Z" style="fill:rgb(0,133,124);"/>
                <path d="M677.817,175.455C690.516,210.344 736.134,335.68 753.356,382.994" style="fill:none;stroke:rgb(0,133,124);stroke-width:2.7px;"/>
            </g>
        </g>
        <g transform="matrix(0.666518,0.745255,-0.710787,0.627742,692.666,-205.413)">
            <g transform="matrix(0.662092,-0.786035,-0.749681,-0.70299,745.877,1673.93)">
                <path d="M391.809,224.473C389.44,222.104 385.593,222.104 383.223,224.473C380.854,226.843 380.854,230.69 383.223,233.059C385.593,235.428 389.44,235.428 391.809,233.059C394.178,230.69 394.178,226.843 391.809,224.473Z" style="fill:rgb(0,133,124);"/>
                <path d="M548.552,378.355L560,401.25L537.105,389.802L548.552,378.355Z" style="fill:rgb(0,133,124);"/>
                <path d="M390.092,231.342C416.346,257.596 510.659,351.909 546.263,387.513" style="fill:none;stroke:rgb(0,133,124);stroke-width:2.7px;"/>
            </g>
        </g>
        <g transform="matrix(0.957113,-0.289112,0.268536,0.909487,123.592,370.335)">
            <g transform="matrix(0.959254,0.304932,0.28323,-1.00949,-410.542,1003.01)">
                <path d="M1249.13,174.108C1250.28,170.96 1248.65,167.473 1245.51,166.327C1242.36,165.181 1238.87,166.807 1237.72,169.955C1236.58,173.104 1238.2,176.591 1241.35,177.737C1244.5,178.883 1247.99,177.257 1249.13,174.108Z" style="fill:rgb(0,133,124);"/>
                <path d="M1175.91,381.199L1160,401.25L1160.7,375.662L1175.91,381.199Z" style="fill:rgb(0,133,124);"/>
                <path d="M1242.18,175.455C1229.48,210.344 1183.87,335.68 1166.64,382.994" style="fill:none;stroke:rgb(0,133,124);stroke-width:2.7px;"/>
            </g>
        </g>
        <g transform="matrix(0.745255,-0.666518,0.627742,0.710787,154.587,867.334)">
            <g transform="matrix(0.749681,0.70299,0.662092,-0.786035,-469.392,311.003)">
                <path d="M1536.78,233.059C1539.15,230.69 1539.15,226.843 1536.78,224.473C1534.41,222.104 1530.56,222.104 1528.19,224.473C1525.82,226.843 1525.82,230.69 1528.19,233.059C1530.56,235.428 1534.41,235.428 1536.78,233.059Z" style="fill:rgb(0,133,124);"/>
                <path d="M1382.89,389.802L1360,401.25L1371.45,378.355L1382.89,389.802Z" style="fill:rgb(0,133,124);"/>
                <path d="M1529.91,231.342C1503.65,257.596 1409.34,351.909 1373.74,387.513" style="fill:none;stroke:rgb(0,133,124);stroke-width:2.7px;"/>
            </g>
        </g>
    </g>
</svg>
