<?xml version="1.0" encoding="UTF-8" standalone="no"?>
<!DOCTYPE svg PUBLIC "-//W3C//DTD SVG 1.1//EN" "http://www.w3.org/Graphics/SVG/1.1/DTD/svg11.dtd">
<svg width="100%" height="100%" viewBox="0 0 1920 1440" version="1.1" xmlns="http://www.w3.org/2000/svg" xmlns:xlink="http://www.w3.org/1999/xlink" xml:space="preserve" xmlns:serif="http://www.serif.com/" style="fill-rule:evenodd;clip-rule:evenodd;stroke-linejoin:round;stroke-miterlimit:2;">
    <rect x="0" y="0" width="1920" height="1440" style="fill:rgb(243,244,246);"/>
    <g transform="matrix(1,0,0,1,30,30)">
        <g id="image-svgrepo-com.svg" transform="matrix(0.625,0,0,0.625,900,660)">
            <g opacity="0.5">
                <g transform="matrix(1,0,0,1,-400,-400)">
                    <g id="SVGRepo_iconCarrier">
                        <path d="M600,66.667L200,66.667C126.362,66.667 66.667,126.362 66.667,200L66.667,600C66.667,673.638 126.362,733.333 200,733.333L600,733.333C673.638,733.333 733.333,673.638 733.333,600L733.333,200C733.333,126.362 673.638,66.667 600,66.667Z" style="fill:url(#_Linear1);fill-rule:nonzero;"/>
                        <path d="M190.785,585.094C179.704,607.256 195.82,633.333 220.6,633.333L446.065,633.333C470.844,633.333 486.96,607.256 475.879,585.094L363.146,359.629C350.863,335.06 315.802,335.06 303.517,359.629L190.785,585.094Z" style="fill:white;fill-rule:nonzero;"/>
                        <path d="M390.785,585.094C379.704,607.256 395.821,633.333 420.6,633.333L579.398,633.333C604.177,633.333 620.294,607.256 609.213,585.094L529.813,426.296C517.529,401.727 482.469,401.727 470.183,426.296L390.785,585.094Z" style="fill:white;fill-opacity:0.6;fill-rule:nonzero;"/>
                        <path d="M566.671,300C603.49,300 633.338,270.151 633.338,233.332C633.338,196.513 603.49,166.666 566.671,166.666C529.852,166.666 500.004,196.513 500.004,233.332C500.004,270.151 529.852,300 566.671,300Z" style="fill:white;fill-rule:nonzero;"/>
                    </g>
                </g>
            </g>
        </g>
        <g id="image-svgrepo-com.svg1" serif:id="image-svgrepo-com.svg" transform="matrix(0.625,0,0,0.625,960,720)">
            <g transform="matrix(1,0,0,1,-400,-400)">
                <g id="SVGRepo_iconCarrier1" serif:id="SVGRepo_iconCarrier">
                    <path d="M600,66.667L200,66.667C126.362,66.667 66.667,126.362 66.667,200L66.667,600C66.667,673.638 126.362,733.333 200,733.333L600,733.333C673.638,733.333 733.333,673.638 733.333,600L733.333,200C733.333,126.362 673.638,66.667 600,66.667Z" style="fill:url(#_Linear2);fill-rule:nonzero;"/>
                    <path d="M190.785,585.094C179.704,607.256 195.82,633.333 220.6,633.333L446.065,633.333C470.844,633.333 486.96,607.256 475.879,585.094L363.146,359.629C350.863,335.06 315.802,335.06 303.517,359.629L190.785,585.094Z" style="fill:white;fill-rule:nonzero;"/>
                    <path d="M390.785,585.094C379.704,607.256 395.821,633.333 420.6,633.333L579.398,633.333C604.177,633.333 620.294,607.256 609.213,585.094L529.813,426.296C517.529,401.727 482.469,401.727 470.183,426.296L390.785,585.094Z" style="fill:white;fill-opacity:0.6;fill-rule:nonzero;"/>
                    <path d="M566.671,300C603.49,300 633.338,270.151 633.338,233.332C633.338,196.513 603.49,166.666 566.671,166.666C529.852,166.666 500.004,196.513 500.004,233.332C500.004,270.151 529.852,300 566.671,300Z" style="fill:white;fill-rule:nonzero;"/>
                </g>
            </g>
        </g>
    </g>
    <defs>
        <linearGradient id="_Linear1" x1="0" y1="0" x2="1" y2="0" gradientUnits="userSpaceOnUse" gradientTransform="matrix(4.08216e-14,666.667,-666.667,4.08216e-14,400,66.6667)"><stop offset="0" style="stop-color:rgb(0,133,124);stop-opacity:1"/><stop offset="1" style="stop-color:rgb(0,133,124);stop-opacity:1"/></linearGradient>
        <linearGradient id="_Linear2" x1="0" y1="0" x2="1" y2="0" gradientUnits="userSpaceOnUse" gradientTransform="matrix(4.08216e-14,666.667,-666.667,4.08216e-14,400,66.6667)"><stop offset="0" style="stop-color:rgb(0,133,124);stop-opacity:1"/><stop offset="1" style="stop-color:rgb(0,133,124);stop-opacity:1"/></linearGradient>
    </defs>
</svg>
