<?xml version="1.0" encoding="UTF-8" standalone="no"?>
<!DOCTYPE svg PUBLIC "-//W3C//DTD SVG 1.1//EN" "http://www.w3.org/Graphics/SVG/1.1/DTD/svg11.dtd">
<svg width="100%" height="100%" viewBox="0 0 200 200" version="1.1" xmlns="http://www.w3.org/2000/svg" xmlns:xlink="http://www.w3.org/1999/xlink" xml:space="preserve" xmlns:serif="http://www.serif.com/" style="fill-rule:evenodd;clip-rule:evenodd;stroke-linejoin:round;stroke-miterlimit:2;">
    <g>
        <g transform="matrix(2.24638,0,0,1.91358,-171.981,-75.7202)">
            <ellipse cx="121.075" cy="91.828" rx="44.516" ry="52.258" style="fill:rgb(0,133,124);"/>
        </g>
        <g transform="matrix(1,0,0,1,-47.1086,9.02688)">
            <g transform="matrix(100,0,0,100,74.4086,92.4731)">
                <path d="M0.406,0.015C0.331,0.015 0.265,-0 0.208,-0.031C0.151,-0.062 0.106,-0.105 0.075,-0.16C0.043,-0.215 0.027,-0.279 0.027,-0.35C0.027,-0.421 0.043,-0.485 0.075,-0.54C0.106,-0.595 0.151,-0.638 0.207,-0.669C0.265,-0.7 0.33,-0.715 0.403,-0.715C0.464,-0.715 0.519,-0.705 0.57,-0.684C0.621,-0.663 0.664,-0.632 0.699,-0.594C0.734,-0.555 0.758,-0.509 0.771,-0.457L0.526,-0.457C0.514,-0.474 0.498,-0.488 0.476,-0.498C0.456,-0.507 0.432,-0.512 0.406,-0.512C0.36,-0.512 0.323,-0.497 0.295,-0.468C0.267,-0.438 0.253,-0.399 0.253,-0.35C0.253,-0.302 0.267,-0.263 0.295,-0.233C0.322,-0.202 0.36,-0.187 0.409,-0.187C0.441,-0.187 0.468,-0.194 0.491,-0.207C0.514,-0.22 0.53,-0.239 0.541,-0.262L0.369,-0.262L0.369,-0.408L0.781,-0.408C0.783,-0.39 0.784,-0.372 0.784,-0.355C0.784,-0.283 0.769,-0.219 0.738,-0.163C0.707,-0.107 0.662,-0.063 0.605,-0.032C0.548,-0.001 0.481,0.015 0.406,0.015Z" style="fill:rgb(243,244,246);fill-rule:nonzero;"/>
            </g>
        </g>
        <g transform="matrix(1,0,0,1,36.4414,-2.63978)">
            <g transform="matrix(66.6667,0,0,66.6667,74.4086,92.4731)">
                <path d="M0.032,-0.172L0.294,-0.49L0.293,-0.493L0.206,-0.492L0.042,-0.492L0.042,-0.7L0.601,-0.7L0.601,-0.528L0.34,-0.21L0.341,-0.207L0.438,-0.208L0.607,-0.208L0.607,-0L0.032,-0L0.032,-0.172Z" style="fill:rgb(243,244,246);fill-rule:nonzero;"/>
            </g>
        </g>
        <g transform="matrix(-1,-2.77556e-16,-2.77556e-16,1,163.559,64.3602)">
            <g transform="matrix(66.6667,0,0,66.6667,74.4086,92.4731)">
                <path d="M0.032,-0.172L0.294,-0.49L0.293,-0.493L0.206,-0.492L0.042,-0.492L0.042,-0.7L0.601,-0.7L0.601,-0.528L0.34,-0.21L0.341,-0.207L0.438,-0.208L0.607,-0.208L0.607,-0L0.032,-0L0.032,-0.172Z" style="fill:rgb(243,244,246);fill-rule:nonzero;"/>
            </g>
        </g>
        <g transform="matrix(-1,0,0,1,247.109,76.0269)">
            <g transform="matrix(100,0,0,100,74.4086,92.4731)">
                <path d="M0.406,0.015C0.331,0.015 0.265,-0 0.208,-0.031C0.151,-0.062 0.106,-0.105 0.075,-0.16C0.043,-0.215 0.027,-0.279 0.027,-0.35C0.027,-0.421 0.043,-0.485 0.075,-0.54C0.106,-0.595 0.151,-0.638 0.207,-0.669C0.265,-0.7 0.33,-0.715 0.403,-0.715C0.464,-0.715 0.519,-0.705 0.57,-0.684C0.621,-0.663 0.664,-0.632 0.699,-0.594C0.734,-0.555 0.758,-0.509 0.771,-0.457L0.526,-0.457C0.514,-0.474 0.498,-0.488 0.476,-0.498C0.456,-0.507 0.432,-0.512 0.406,-0.512C0.36,-0.512 0.323,-0.497 0.295,-0.468C0.267,-0.438 0.253,-0.399 0.253,-0.35C0.253,-0.302 0.267,-0.263 0.295,-0.233C0.322,-0.202 0.36,-0.187 0.409,-0.187C0.441,-0.187 0.468,-0.194 0.491,-0.207C0.514,-0.22 0.53,-0.239 0.541,-0.262L0.369,-0.262L0.369,-0.408L0.781,-0.408C0.783,-0.39 0.784,-0.372 0.784,-0.355C0.784,-0.283 0.769,-0.219 0.738,-0.163C0.707,-0.107 0.662,-0.063 0.605,-0.032C0.548,-0.001 0.481,0.015 0.406,0.015Z" style="fill:rgb(243,244,246);fill-rule:nonzero;"/>
            </g>
        </g>
    </g>
</svg>
