<?xml version="1.0" encoding="UTF-8" standalone="no"?>
<!DOCTYPE svg PUBLIC "-//W3C//DTD SVG 1.1//EN" "http://www.w3.org/Graphics/SVG/1.1/DTD/svg11.dtd">
<svg width="100%" height="100%" viewBox="0 0 800 200" version="1.1" xmlns="http://www.w3.org/2000/svg" xmlns:xlink="http://www.w3.org/1999/xlink" xml:space="preserve" xmlns:serif="http://www.serif.com/" style="fill-rule:evenodd;clip-rule:evenodd;stroke-linejoin:round;stroke-miterlimit:2;">
    <g transform="matrix(1,0,0,1,300,0)">
        <g transform="matrix(2.24638,0,0,1.91358,-171.981,-75.7202)">
            <ellipse cx="121.075" cy="91.828" rx="44.516" ry="52.258" style="fill:rgb(0,133,124);"/>
        </g>
        <g transform="matrix(1,0,0,1,-47.1086,9.02688)">
            <text x="74.409px" y="92.473px" style="font-family:'Garet-Heavy', 'Garet';font-weight:850;font-size:100px;fill:rgb(243,244,246);">G</text>
        </g>
        <g transform="matrix(1,0,0,1,36.4414,-2.63978)">
            <text x="74.409px" y="92.473px" style="font-family:'Garet-Heavy', 'Garet';font-weight:850;font-size:66.667px;fill:rgb(243,244,246);">Z</text>
        </g>
        <g transform="matrix(-1,-2.77556e-16,-2.77556e-16,1,163.559,64.3602)">
            <text x="74.409px" y="92.473px" style="font-family:'Garet-Heavy', 'Garet';font-weight:850;font-size:66.667px;fill:rgb(243,244,246);">Z</text>
        </g>
        <g transform="matrix(-1,0,0,1,247.109,76.0269)">
            <text x="74.409px" y="92.473px" style="font-family:'Garet-Heavy', 'Garet';font-weight:850;font-size:100px;fill:rgb(243,244,246);">G</text>
        </g>
    </g>
    <g transform="matrix(1,0,0,1,-70.5313,37.7553)">
        <text x="67.756px" y="98.217px" style="font-family:'Garet-Heavy', 'Garet';font-weight:850;font-size:102.778px;fill:rgb(0,133,124);">GO<tspan x="234.462px " y="98.217px ">Z</tspan>E</text>
    </g>
    <g transform="matrix(1,0,0,1,438.196,37.7553)">
        <text x="67.756px" y="98.217px" style="font-family:'Garet-Heavy', 'Garet';font-weight:850;font-size:102.778px;fill:rgb(0,133,124);">ZE<tspan x="196.229px " y="98.217px ">G</tspan>O</text>
    </g>
</svg>
